#!OML:ASF E:\motion texture\Top Level 1\Subject 1\Session 1\male.ASF
:FULLY-SPECIFIED
:DEGREES
418
root -25.062 18.061 3.47244 395.153 -89.0002 -388.439
lowerback 0.731842 -2.0456 0.38588
upperback -0.0697803 -2.75051 3.28613
thorax -0.337855 -1.39175 3.18155
lowerneck -14.3812 -3.61932 -5.46766
upperneck 11.0729 -4.30794 3.76919
head 5.90527 -2.04072 1.67945
rclavicle -8.44835e-015 -2.38542e-015
rhumerus -70.6839 -28.778 -35.5177
rradius 15.2957
rwrist 30.9137
rhand 2.91609 -26.0959
rfingers 7.12502
rthumb 28.3804 -53.9646
lclavicle -8.44835e-015 -2.38542e-015
lhumerus -77.8197 35.7002 27.0213
lradius 13.4982
lwrist -64.2892
lhand 4.46991 18.9437
lfingers 7.12502
lthumb 29.8642 46.5555
rfemur -35.883 -9.16859 20.3893
rtibia 58.6239
rfoot -3.92734 -17.5178
rtoes 6.85084
lfemur -5.03586 -2.8915 -21.7824
ltibia 15.0171
lfoot -11.2587 1.84193
ltoes -2.78003
419
root -25.1833 18.055 3.46914 385.15 -88.7467 -378.316
lowerback 0.798412 -2.12677 0.320206
upperback -0.129776 -2.85572 3.29225
thorax -0.427648 -1.44318 3.22988
lowerneck -14.2791 -3.60803 -5.46928
upperneck 10.9478 -4.3006 3.81295
head 5.84932 -2.0348 1.69615
rclavicle 1.68967e-015 7.95139e-016
rhumerus -70.0671 -29.0278 -35.9416
rradius 15.1504
rwrist 31.5177
rhand 2.13481 -26.278
rfingers 7.12502
rthumb 27.6335 -54.2686
lclavicle 1.68967e-015 7.95139e-016
lhumerus -76.6534 36.184 27.5334
lradius 13.3552
lwrist -65.2553
lhand 3.85883 18.9704
lfingers 7.12502
lthumb 29.2809 46.6855
rfemur -36.4852 -9.31185 20.3643
rtibia 56.7337
rfoot -4.50768 -17.7978
rtoes 6.511
lfemur -4.69758 -2.90281 -21.8759
ltibia 14.95
lfoot -11.4725 1.72077
ltoes -2.911
420
root -25.3045 18.0476 3.46536 379.068 -88.4708 -372.095
lowerback 0.843229 -2.20017 0.267852
upperback -0.19853 -2.95086 3.29981
thorax -0.515128 -1.4895 3.27171
lowerneck -14.1862 -3.60816 -5.47498
upperneck 10.8502 -4.30704 3.84886
head 5.80426 -2.03635 1.70943
rclavicle -7.85199e-015 1.66979e-014
rhumerus -69.3457 -29.2568 -36.5002
rradius 15.0023
rwrist 32.1284
rhand 1.35203 -26.4727
rfingers 7.12502
rthumb 26.8847 -54.5809
lclavicle -7.85199e-015 1.66979e-014
lhumerus -75.4168 36.7049 28.0894
lradius 13.1988
lwrist -66.2084
lhand 3.19988 18.971
lfingers 7.12502
lthumb 28.6515 46.7941
rfemur -37.0226 -9.42736 20.3324
rtibia 54.6953
rfoot -5.01995 -18.0908
rtoes 6.23177
lfemur -4.38753 -2.94244 -21.9578
ltibia 14.9
lfoot -11.6833 1.62904
ltoes -3.1644
421
root -25.4259 18.0388 3.46107 375.195 -88.1816 -368.066
lowerback 0.865937 -2.26639 0.228602
upperback -0.276445 -3.03669 3.30981
thorax -0.600494 -1.53113 3.30808
lowerneck -14.1064 -3.61999 -5.47979
upperneck 10.7857 -4.3267 3.86344
head 5.77195 -2.04585 1.71425
rclavicle 1.08338e-014 -4.37326e-014
rhumerus -68.5329 -29.4734 -37.1581
rradius 14.8498
rwrist 32.7559
rhand 0.585631 -26.6703
rfingers 7.12502
rthumb 26.1512 -54.8892
lclavicle 1.08338e-014 -4.37326e-014
lhumerus -74.1363 37.2793 28.6458
lradius 13.0262
lwrist -67.1926
lhand 2.48575 18.9559
lfingers 7.12502
lthumb 27.969 46.8923
rfemur -37.4905 -9.51559 20.2882
rtibia 52.5092
rfoot -5.45806 -18.37
rtoes 6.0313
lfemur -4.1043 -3.00871 -22.0277
ltibia 14.8661
lfoot -11.9094 1.55906
ltoes -3.45688
422
root -25.5477 18.0284 3.45609 372.476 -87.8877 -365.176
lowerback 0.864025 -2.32376 0.193662
upperback -0.355491 -3.11123 3.31944
thorax -0.673975 -1.56716 3.34058
lowerneck -14.0596 -3.64589 -5.47447
upperneck 10.7568 -4.36238 3.84823
head 5.75626 -2.06462 1.7059
rclavicle -2.28602e-015 1.03368e-014
rhumerus -67.6256 -29.6873 -37.9075
rradius 14.6966
rwrist 33.3797
rhand -0.152941 -26.8574
rfingers 7.12502
rthumb 25.4439 -55.1792
lclavicle -2.28602e-015 1.03368e-014
lhumerus -72.7898 37.908 29.2396
lradius 12.855
lwrist -68.1943
lhand 1.73776 18.9208
lfingers 7.12502
lthumb 27.2538 46.9716
rfemur -37.8817 -9.56688 20.218
rtibia 50.1724
rfoot -5.80419 -18.627
rtoes 5.9715
lfemur -3.84035 -3.09694 -22.0914
ltibia 14.8449
lfoot -12.1472 1.50167
ltoes -3.76087
423
root -25.6701 18.0163 3.45045 370.33 -87.5883 -362.851
lowerback 0.840277 -2.37574 0.154055
upperback -0.435106 -3.17911 3.32798
thorax -0.735891 -1.59988 3.37355
lowerneck -14.01 -3.67591 -5.487
upperneck 10.7324 -4.40207 3.845
head 5.74241 -2.08523 1.70387
rclavicle 1.39149e-015 -5.56597e-015
rhumerus -66.6138 -29.8822 -38.7604
rradius 14.5467
rwrist 33.9633
rhand -0.87776 -26.9949
rfingers 7.12502
rthumb 24.7494 -55.4138
lclavicle 1.39149e-015 -5.56597e-015
lhumerus -71.3834 38.5921 29.8678
lradius 12.6831
lwrist -69.2004
lhand 0.937039 18.8803
lfingers 7.12502
lthumb 26.4876 47.049
rfemur -38.1884 -9.57968 20.1071
rtibia 47.6808
rfoot -6.04848 -18.8488
rtoes 6.06471
lfemur -3.58226 -3.19746 -22.1547
ltibia 14.8231
lfoot -12.3971 1.43902
ltoes -4.07384
